<svg width="800" height="400" viewBox="0 0 800 400" fill="none" xmlns="http://www.w3.org/2000/svg">
<g clip-path="url(#clip0)">
<rect width="800" height="400" fill="white"/>
<g clip-path="url(#clip1)">
<path d="M417.039 273.374C455.169 263.318 477.927 224.256 467.871 186.127C457.815 147.998 418.753 125.239 380.624 135.295C342.494 145.351 319.736 184.413 329.792 222.542C339.848 260.672 378.91 283.43 417.039 273.374Z" fill="#2F89FC"/>
<path d="M241.726 392.583L225.419 392.705C104.38 393.973 26.4334 362.407 11.6326 306.286C-3.17834 250.126 49.1123 184.253 154.995 125.675L169.253 117.779L177.534 131.769C199.446 168.338 224.318 203.05 251.9 235.557L257.003 241.574L255.531 249.326C247.562 291.265 243.006 333.751 242.041 376.366L241.726 392.583V392.583ZM157.238 162.729C77.4317 209.755 34.2541 260.772 44.0057 297.748C53.7369 334.646 116.43 357.784 209.077 359.288C210.782 322.931 214.885 286.728 221.265 250.999C197.974 223.04 176.584 193.55 157.238 162.729V162.729ZM628.308 290.63L620.055 276.59C598.111 240.021 573.224 205.301 545.641 172.774L540.548 166.795L542.01 159.005C549.999 117.144 554.467 74.6388 555.548 31.9933L555.824 15.787L572.122 15.6256C693.199 14.3475 771.097 45.8855 785.918 102.084C800.729 158.244 748.477 224.106 642.556 282.694L628.308 290.63V290.63ZM576.209 157.39C600.513 186.805 622.083 216.362 640.292 245.564C720.148 198.566 763.315 147.51 753.584 110.611C743.832 73.6357 681.16 50.5755 588.454 49.0044C586.761 85.3631 582.67 121.57 576.209 157.39V157.39Z" fill="#2F89FC"/>
<path d="M156.962 162.634L148.73 148.672C87.1192 44.6229 75.5411 -38.4926 116.985 -79.4556C157.459 -119.708 242.93 -107.293 345.196 -45.9436L359.159 -37.5467L351.143 -23.3946C330.396 13.8757 312.707 52.7676 298.25 92.8985L295.532 100.317L288.115 102.935C247.798 117.026 208.698 134.38 171.202 154.824L156.962 162.634V162.634ZM161.752 -67.3514C153.088 -65.0665 145.93 -61.1516 140.45 -55.7351C113.291 -28.84 124.587 36.8927 169.502 117.794C201.954 101.086 235.287 86.4618 269.523 74.1648C282.222 40.0405 297.119 6.77547 314.122 -25.4209C250.802 -61.1343 195.904 -76.3583 161.752 -67.3514V-67.3514ZM644.3 507.976C598.351 520.094 530.189 501.004 452.338 454.272L438.424 445.904L446.412 431.801C467.151 394.481 484.842 355.548 499.313 315.381L502.013 308.05L509.322 305.337C549.668 291.299 588.791 273.967 626.294 253.514L640.552 245.617L648.834 259.608C710.269 363.62 721.916 446.841 680.549 487.784C670.478 497.62 657.964 504.59 644.3 507.976V507.976ZM483.451 433.739C546.733 469.463 601.679 484.715 635.793 475.719C644.495 473.423 651.643 469.47 657.095 464.102C684.283 437.158 672.995 371.299 628.002 290.419C595.599 307.155 562.237 321.828 527.924 334.145C515.324 368.292 500.466 401.564 483.451 433.739V433.739Z" fill="#2F89FC"/>
<path d="M588.642 48.7873L572.354 48.9874C529.637 49.6643 487.048 53.8537 445.018 61.5133L437.342 62.8347L431.357 57.7114C398.995 29.9082 364.412 4.80002 327.954 -17.3619L314.04 -25.7303L322.028 -39.8335C380.709 -143.588 448.904 -196.529 504.031 -181.531C560.258 -166.285 591.213 -88.2801 588.957 32.5708L588.642 48.7873ZM447.014 27.3552C484.779 20.9116 521.202 17.2214 555.619 15.9631C554.835 -76.5764 532.245 -139.331 495.306 -149.362C458.57 -159.406 406.027 -115.351 359.22 -37.3145C389.879 -17.684 419.225 3.86505 447.014 27.3552ZM334.995 589.548C321.437 593.332 307.116 593.439 293.503 589.859C237.247 574.662 206.31 496.57 208.567 375.719L208.755 359.494L225.053 359.333C264.817 358.899 307.637 354.68 352.368 346.73L360.066 345.486L366.068 350.521C398.385 378.319 432.988 403.488 469.463 425.721L483.406 434.041L475.39 448.193C430.759 527.268 380.867 577.45 334.995 589.548V589.548ZM241.894 392.288C242.717 484.817 265.337 547.688 302.238 557.729C338.941 567.493 391.341 523.682 438.352 445.633C407.69 425.999 378.326 404.408 350.442 380.994C314.547 387.142 278.286 390.915 241.894 392.288V392.288Z" fill="#2F89FC"/>
<path d="M440.331 361.674C413.76 368.681 386.196 374.751 358.211 379.691L350.457 381.033L344.433 375.919C323.136 357.787 302.587 338.793 282.838 318.985C263.173 299.087 244.319 278.404 226.32 256.988L221.265 250.999L222.688 243.218C227.806 215.724 233.975 188.45 241.292 161.451C248.634 134.86 257.213 107.942 266.788 81.5061L269.527 74.1651L276.924 71.4696C329.758 52.6955 384.07 38.3719 439.292 28.6484L446.989 27.4044L452.992 32.4401C495.644 68.7128 535.191 108.485 571.222 151.341L576.258 157.418L574.853 165.111C564.716 220.179 549.925 274.287 530.637 326.853L527.919 334.272L520.589 336.908C493.864 346.314 466.864 354.676 440.331 361.674V361.674ZM360.175 345.417C408.891 336.416 455.226 324.196 502.006 308.012C518.36 261.967 531.244 214.763 540.548 166.794C508.86 129.596 474.369 94.8796 437.376 62.951C389.21 71.7651 341.794 84.2703 295.546 100.356C279.084 146.367 266.199 193.579 257.003 241.573C288.792 278.679 323.276 313.388 360.175 345.417V345.417Z" fill="#2F89FC"/>
</g>
</g>
<defs>
<clipPath id="clip0">
<rect width="800" height="400" fill="white"/>
</clipPath>
<clipPath id="clip1">
<rect width="960" height="960" fill="white" transform="translate(-180 -108.191) rotate(-14.7742)"/>
</clipPath>
</defs>
</svg>
