<svg width="500" height="250" viewBox="0 0 500 250" fill="none" xmlns="http://www.w3.org/2000/svg">
<g clip-path="url(#clip0)">
<rect width="500" height="250" fill="white"/>
<g clip-path="url(#clip1)">
<path d="M260.65 170.859C284.481 164.574 298.705 140.16 292.42 116.329C286.135 92.4983 261.721 78.2745 237.89 84.5594C214.059 90.8443 199.836 115.258 206.121 139.089C212.405 162.92 236.819 177.144 260.65 170.859Z" fill="#2F89FC"/>
<path d="M151.079 245.364L140.887 245.441C65.2376 246.233 16.5209 226.504 7.27039 191.429C-1.98646 156.329 30.6952 115.158 96.8719 78.5473L105.783 73.6117L110.959 82.3559C124.654 105.212 140.198 126.907 157.437 147.223L160.627 150.984L159.707 155.829C154.726 182.041 151.879 208.595 151.276 235.229L151.079 245.364V245.364ZM98.2738 101.705C48.3948 131.097 21.4088 162.983 27.5036 186.093C33.5856 209.154 72.7687 223.615 130.673 224.555C131.738 201.832 134.303 179.205 138.291 156.875C123.734 139.4 110.365 120.969 98.2738 101.705V101.705ZM392.693 181.644L387.534 172.869C373.82 150.013 358.265 128.313 341.026 107.984L337.842 104.247L338.756 99.3782C343.749 73.2149 346.542 46.6494 347.217 19.9959L347.39 9.86699L357.576 9.76611C433.249 8.96731 481.936 28.6785 491.199 63.8026C500.456 98.9025 467.798 140.066 401.597 176.684L392.693 181.644V181.644ZM360.13 98.3692C375.321 116.753 388.802 135.226 400.183 153.477C450.092 124.104 477.072 92.1938 470.99 69.1323C464.895 46.0225 425.725 31.6098 367.784 30.6279C366.725 53.3521 364.169 75.9817 360.13 98.3692V98.3692Z" fill="#2F89FC"/>
<path d="M98.1015 101.646L92.9561 92.9198C54.4496 27.8894 47.2133 -24.0578 73.116 -49.6597C98.4119 -74.8171 151.832 -67.0582 215.748 -28.7147L224.475 -23.4666L219.465 -14.6216C206.498 8.67238 195.442 32.9798 186.407 58.0616L184.708 62.6981L180.072 64.3344C154.874 73.1412 130.436 83.9874 107.001 96.7654L98.1015 101.646V101.646ZM101.095 -42.0945C95.6804 -40.6665 91.2064 -38.2197 87.7814 -34.8344C70.8068 -18.0249 77.8668 23.058 105.939 73.621C126.222 63.1785 147.055 54.0387 168.452 46.353C176.389 25.0254 185.7 4.23473 196.327 -15.888C156.751 -38.2089 122.44 -47.7239 101.095 -42.0945V-42.0945ZM402.688 317.485C373.969 325.059 331.369 313.128 282.712 283.92L274.015 278.69L279.008 269.875C291.969 246.551 303.026 222.218 312.071 197.113L313.758 192.532L318.327 190.835C343.543 182.062 367.994 171.229 391.434 158.446L400.345 153.511L405.521 162.255C443.918 227.263 451.198 279.276 425.343 304.865C419.049 311.012 411.228 315.369 402.688 317.485V317.485ZM302.157 271.087C341.708 293.414 376.05 302.947 397.371 297.324C402.81 295.89 407.277 293.419 410.684 290.064C427.677 273.224 420.622 232.062 392.501 181.512C372.249 191.972 351.398 201.143 329.953 208.841C322.077 230.183 312.792 250.977 302.157 271.087V271.087Z" fill="#2F89FC"/>
<path d="M367.901 30.492L357.721 30.6171C331.023 31.0402 304.405 33.6586 278.137 38.4458L273.339 39.2716L269.598 36.0696C249.372 18.6926 227.758 2.99997 204.972 -10.8512L196.275 -16.0815L201.267 -24.896C237.943 -89.7427 280.565 -122.83 315.019 -113.457C350.161 -103.928 369.508 -55.1751 368.098 20.3567L367.901 30.492ZM279.384 17.097C302.987 13.0697 325.752 10.7633 347.262 9.9769C346.772 -47.8603 332.653 -87.0816 309.566 -93.3514C286.606 -99.629 253.767 -72.0944 224.512 -23.3216C243.675 -11.0526 262.016 2.41562 279.384 17.097ZM209.372 368.467C200.898 370.832 191.948 370.899 183.439 368.662C148.28 359.164 128.944 310.356 130.354 234.824L130.472 224.684L140.658 224.583C165.511 224.312 192.273 221.675 220.23 216.706L225.041 215.929L228.793 219.076C248.991 236.45 270.617 252.18 293.415 266.076L302.129 271.275L297.119 280.12C269.225 329.543 238.042 360.906 209.372 368.467V368.467ZM151.184 245.18C151.698 303.011 165.836 342.305 188.899 348.581C211.838 354.683 244.588 327.301 273.97 278.521C254.806 266.249 236.454 252.755 219.027 238.121C196.592 241.964 173.929 244.322 151.184 245.18V245.18Z" fill="#2F89FC"/>
<path d="M275.207 226.046C258.6 230.426 241.373 234.219 223.882 237.307L219.035 238.145L215.271 234.95C201.96 223.617 189.117 211.746 176.774 199.365C164.483 186.929 152.699 174.003 141.45 160.617L138.291 156.874L139.18 152.012C142.379 134.828 146.234 117.781 150.808 100.907C155.396 84.2873 160.758 67.4637 166.743 50.9413L168.454 46.3532L173.077 44.6685C206.099 32.9347 240.044 23.9824 274.558 17.9052L279.368 17.1277L283.12 20.2751C309.777 42.9455 334.495 67.803 357.014 94.5884L360.161 98.3863L359.283 103.194C352.948 137.612 343.703 171.429 331.648 204.283L329.95 208.92L325.368 210.568C308.665 216.446 291.79 221.673 275.207 226.046V226.046ZM225.11 215.885C255.557 210.26 284.517 202.623 313.754 192.507C323.975 163.73 332.027 134.227 337.843 104.246C318.038 80.9973 296.481 59.2997 273.36 39.3444C243.257 44.8532 213.621 52.6689 184.716 62.7224C174.428 91.4792 166.374 120.987 160.627 150.983C180.495 174.175 202.048 195.868 225.11 215.885V215.885Z" fill="#2F89FC"/>
</g>
</g>
<defs>
<clipPath id="clip0">
<rect width="500" height="250" fill="white"/>
</clipPath>
<clipPath id="clip1">
<rect width="600" height="600" fill="white" transform="translate(-112.5 -67.6191) rotate(-14.7742)"/>
</clipPath>
</defs>
</svg>
